<svg xmlns="http://www.w3.org/2000/svg" viewBox="0 0 162.5 25"><title>pcdiga</title><path d="M18.73,0H1.55L0,6.25H18.73a3.13,3.13,0,1,1,0,6.25H0V25H6.22V18.75H18.73A9.38,9.38,0,1,0,18.73,0Z" style="fill:#ff4d23;fill-rule:evenodd"/><path d="M43.73,18.75a6.25,6.25,0,0,1,0-12.5H57.81L59.34,0H43.72a12.5,12.5,0,0,0,0,25H57.79l1.53-6.25Z" style="fill:#ff4d23;fill-rule:evenodd"/><path d="M78.11,0H64L62.5,6.25H78.13a6.25,6.25,0,0,1,0,12.5H68.75V9.32H62.5V25H78.13a12.5,12.5,0,1,0,0-25Z" style="fill:#1c5a9d;fill-rule:evenodd"/><path d="M115.61,6.25h14.08L131.22,0H115.59a12.5,12.5,0,0,0,0,25h15.63V9.38H117.14l-1.53,6.25H125v3.12h-9.37a6.25,6.25,0,0,1,0-12.5Z" style="fill:#1c5a9d;fill-rule:evenodd"/><rect x="93.73" width="6.25" height="25" style="fill:#1c5a9d"/><path d="M152.53,15.16h-5.67a2.66,2.66,0,0,1,0-5.32h5.67Zm-5.67,6.06a8.7,8.7,0,0,1,0-17.4h9.2a2.66,2.66,0,0,1,2.66,2.66v8.69h-2.4V6.08h-9.46a6.44,6.44,0,0,0,0,12.88H162.5V6.46A6.45,6.45,0,0,0,156.06,0h-9.2a12.48,12.48,0,0,0,0,25h14.69l.93-3.78H146.86Z" style="fill:#1c5a9d"/></svg>