<?xml version="1.0" encoding="UTF-8" standalone="no"?><!DOCTYPE svg PUBLIC "-//W3C//DTD SVG 1.1//EN" "http://www.w3.org/Graphics/SVG/1.1/DTD/svg11.dtd"><svg width="100%" height="100%" viewBox="0 0 261 261" version="1.1" xmlns="http://www.w3.org/2000/svg" xmlns:xlink="http://www.w3.org/1999/xlink" xml:space="preserve" xmlns:serif="http://www.serif.com/" style="fill-rule:evenodd;clip-rule:evenodd;stroke-linejoin:round;stroke-miterlimit:2;"><rect id="Artboard1" x="0" y="0" width="260.589" height="260.589" style="fill:none;"/><g transform="matrix(1,0,0,1,-199.301,-300.344)"><g transform="matrix(0.0536608,-0.998559,0.998559,0.0536608,-225.231,623.605)"><text x="216.393px" y="430.632px" style="font-family:'FiraCode-Bold', 'Fira Code', monospace;font-weight:700;font-size:20px;fill:#fff;">M</text></g><g transform="matrix(0.177582,-0.984106,0.984106,0.177582,-231.232,556.372)"><text x="217.261px" y="416.532px" style="font-family:'FiraCode-Bold', 'Fira Code', monospace;font-weight:700;font-size:20px;fill:#fff;">A</text></g><g transform="matrix(0.298352,-0.954456,0.954456,0.298352,-230.495,492.555)"><text x="219.765px" y="403.049px" style="font-family:'FiraCode-Bold', 'Fira Code', monospace;font-weight:700;font-size:20px;fill:#fff;">D</text></g><g transform="matrix(0.40872,-0.91266,0.91266,0.40872,-224.142,435.059)"><text x="223.693px" y="390.515px" style="font-family:'FiraCode-Bold', 'Fira Code', monospace;font-weight:700;font-size:20px;fill:#fff;">E</text></g><g transform="matrix(0.604674,-0.796473,0.796473,0.604674,-199.315,332.997)"><text x="235.791px" y="367.282px" style="font-family:'FiraCode-Bold', 'Fira Code', monospace;font-weight:700;font-size:20px;fill:#fff;">W</text></g><g transform="matrix(0.689524,-0.724263,0.724263,0.689524,-183.099,287.244)"><text x="243.485px" y="357.184px" style="font-family:'FiraCode-Bold', 'Fira Code', monospace;font-weight:700;font-size:20px;fill:#fff;">I</text></g><g transform="matrix(0.764046,-0.645162,0.645162,0.764046,-165.222,244.743)"><text x="251.985px" y="348.252px" style="font-family:'FiraCode-Bold', 'Fira Code', monospace;font-weight:700;font-size:20px;fill:#fff;">T</text></g><g transform="matrix(0.829056,-0.559165,0.559165,0.829056,-145.599,204.338)"><text x="261.4px" y="340.299px" style="font-family:'FiraCode-Bold', 'Fira Code', monospace;font-weight:700;font-size:20px;fill:#fff;">H</text></g><g transform="matrix(0.942473,-0.334282,0.334282,0.942473,-93.2017,113.242)"><text x="282.417px" y="327.413px" style="font-family:'MS-UIGothic', 'MS UI Gothic', sans-serif;font-size:20px;fill:#fff;">❤</text></g><g transform="matrix(0.996511,-0.0834596,0.0834596,0.996511,-25.4906,27.288)"><text x="313.645px" y="318.536px" style="font-family:'FiraCode-Bold', 'Fira Code', monospace;font-weight:700;font-size:20px;fill:#fff;">B</text></g><g transform="matrix(0.999771,0.021402,-0.021402,0.999771,6.86969,-6.90229)"><text x="325.905px" y="317.496px" style="font-family:'FiraCode-Bold', 'Fira Code', monospace;font-weight:700;font-size:20px;fill:#fff;">Y</text></g><g transform="matrix(0.975456,0.220195,-0.220195,0.975456,78.826,-68.9927)"><text x="348.893px" y="319.093px" style="font-family:'FiraCode-Bold', 'Fira Code', monospace;font-weight:700;font-size:20px;fill:#fff;">J</text></g><g transform="matrix(0.944518,0.328459,-0.328459,0.944518,125.726,-100.68)"><text x="360.882px" y="321.818px" style="font-family:'FiraCode-Bold', 'Fira Code', monospace;font-weight:700;font-size:20px;fill:#fff;">O</text></g><g transform="matrix(0.900435,0.43499,-0.43499,0.900435,178.829,-129.612)"><text x="372.548px" y="325.839px" style="font-family:'FiraCode-Bold', 'Fira Code', monospace;font-weight:700;font-size:20px;fill:#fff;">R</text></g><g transform="matrix(0.851163,0.524902,-0.524902,0.851163,230.936,-152.09)"><text x="383.654px" y="331.175px" style="font-family:'FiraCode-Bold', 'Fira Code', monospace;font-weight:700;font-size:20px;fill:#fff;">G</text></g><g transform="matrix(0.786658,0.617389,-0.617389,0.786658,292.531,-171.309)"><text x="394.14px" y="337.621px" style="font-family:'FiraCode-Bold', 'Fira Code', monospace;font-weight:700;font-size:20px;fill:#fff;">E</text></g><g transform="matrix(0.633117,0.774056,-0.774056,0.633117,425.585,-189.766)"><text x="412.978px" y="354.07px" style="font-family:'FiraCode-Bold', 'Fira Code', monospace;font-weight:700;font-size:20px;fill:#fff;">E</text></g><g transform="matrix(0.550265,0.83499,-0.83499,0.550265,492.829,-187.826)"><text x="420.776px" y="363.586px" style="font-family:'FiraCode-Bold', 'Fira Code', monospace;font-weight:700;font-size:20px;fill:#fff;">S</text></g><g transform="matrix(0.454059,0.890971,-0.890971,0.454059,566.542,-176.818)"><text x="427.554px" y="373.888px" style="font-family:'FiraCode-Bold', 'Fira Code', monospace;font-weight:700;font-size:20px;fill:#fff;">T</text></g><g transform="matrix(0.35111,0.936334,-0.936334,0.35111,641.438,-155.865)"><text x="433.174px" y="384.858px" style="font-family:'FiraCode-Bold', 'Fira Code', monospace;font-weight:700;font-size:20px;fill:#fff;">E</text></g><g transform="matrix(0.249784,0.968302,-0.968302,0.249784,712.063,-126.273)"><text x="437.522px" y="396.392px" style="font-family:'FiraCode-Bold', 'Fira Code', monospace;font-weight:700;font-size:20px;fill:#fff;">V</text></g><g transform="matrix(0.139145,0.990272,-0.990272,0.139145,783.636,-84.8436)"><text x="440.617px" y="408.3px" style="font-family:'FiraCode-Bold', 'Fira Code', monospace;font-weight:700;font-size:20px;fill:#fff;">E</text></g><g transform="matrix(0.0364517,0.999335,-0.999335,0.0364517,846.446,-36.8664)"><text x="442.341px" y="420.508px" style="font-family:'FiraCode-Bold', 'Fira Code', monospace;font-weight:700;font-size:20px;fill:#fff;">S</text></g><g transform="matrix(-0.29354,0.955947,-0.955947,-0.29354,1005.86,171.128)"><text x="439.698px" y="457.239px" style="font-family:'FiraCode-Bold', 'Fira Code', monospace;font-weight:700;font-size:20px;fill:#fff;">F</text></g><g transform="matrix(-0.395772,0.918349,-0.918349,-0.395772,1039.52,254.164)"><text x="436.145px" y="469.058px" style="font-family:'FiraCode-Bold', 'Fira Code', monospace;font-weight:700;font-size:20px;fill:#fff;">R</text></g><g transform="matrix(-0.491771,0.870725,-0.870725,-0.491771,1061.72,341.082)"><text x="431.318px" y="480.396px" style="font-family:'FiraCode-Bold', 'Fira Code', monospace;font-weight:700;font-size:20px;fill:#fff;">E</text></g><g transform="matrix(-0.583311,0.812249,-0.812249,-0.583311,1072.31,432.187)"><text x="425.297px" y="491.144px" style="font-family:'FiraCode-Bold', 'Fira Code', monospace;font-weight:700;font-size:20px;fill:#fff;">E</text></g><g transform="matrix(-0.668202,0.74398,-0.74398,-0.668202,1070.44,524.927)"><text x="418.167px" y="501.159px" style="font-family:'FiraCode-Bold', 'Fira Code', monospace;font-weight:700;font-size:20px;fill:#fff;">L</text></g><g transform="matrix(-0.741736,0.670692,-0.670692,-0.741736,1056.3,613.975)"><text x="409.936px" y="510.362px" style="font-family:'FiraCode-Bold', 'Fira Code', monospace;font-weight:700;font-size:20px;fill:#fff;">A</text></g><g transform="matrix(-0.80973,0.586802,-0.586802,-0.80973,1029.68,703.361)"><text x="400.808px" y="518.617px" style="font-family:'FiraCode-Bold', 'Fira Code', monospace;font-weight:700;font-size:20px;fill:#fff;">N</text></g><g transform="matrix(-0.869607,0.493744,-0.493744,-0.869607,990.368,790.157)"><text x="390.848px" y="525.852px" style="font-family:'FiraCode-Bold', 'Fira Code', monospace;font-weight:700;font-size:20px;fill:#fff;">C</text></g><g transform="matrix(-0.918878,0.394542,-0.394542,-0.918878,939.325,870.809)"><text x="380.139px" y="531.972px" style="font-family:'FiraCode-Bold', 'Fira Code', monospace;font-weight:700;font-size:20px;fill:#fff;">E</text></g><g transform="matrix(-0.95719,0.28946,-0.28946,-0.95719,877.262,944.044)"><text x="368.821px" y="536.893px" style="font-family:'FiraCode-Bold', 'Fira Code', monospace;font-weight:700;font-size:20px;fill:#fff;">R</text></g><g transform="matrix(-0.999647,-0.026552,0.026552,-0.999647,650.835,1096.24)"><text x="332.696px" y="543.8px" style="font-family:'FiraCode-Bold', 'Fira Code', monospace;font-weight:700;font-size:20px;fill:#fff;">-</text></g><g transform="matrix(-0.937075,-0.349127,0.349127,-0.937075,385.636,1147.2)"><text x="296.2px" y="538.847px" style="font-family:'FiraCode-Bold', 'Fira Code', monospace;font-weight:700;font-size:20px;fill:#fff;">D</text></g><g transform="matrix(-0.892689,-0.450672,0.450672,-0.892689,297.78,1140.04)"><text x="284.619px" y="534.569px" style="font-family:'FiraCode-Bold', 'Fira Code', monospace;font-weight:700;font-size:20px;fill:#fff;">E</text></g><g transform="matrix(-0.840325,-0.542082,0.542082,-0.840325,216.762,1121.93)"><text x="273.617px" y="529.038px" style="font-family:'FiraCode-Bold', 'Fira Code', monospace;font-weight:700;font-size:20px;fill:#fff;">V</text></g><g transform="matrix(-0.774528,-0.632539,0.632539,-0.774528,136.721,1093.49)"><text x="263.25px" y="522.377px" style="font-family:'FiraCode-Bold', 'Fira Code', monospace;font-weight:700;font-size:20px;fill:#fff;">E</text></g><g transform="matrix(-0.701028,-0.713134,0.713134,-0.701028,64.5117,1056.28)"><text x="253.672px" y="514.619px" style="font-family:'FiraCode-Bold', 'Fira Code', monospace;font-weight:700;font-size:20px;fill:#fff;">L</text></g><g transform="matrix(-0.623538,-0.781793,0.781793,-0.623538,2.3239,1012.82)"><text x="245.018px" y="505.852px" style="font-family:'FiraCode-Bold', 'Fira Code', monospace;font-weight:700;font-size:20px;fill:#fff;">O</text></g><g transform="matrix(-0.53225,-0.846587,0.846587,-0.53225,-56.475,961.262)"><text x="237.317px" y="496.232px" style="font-family:'FiraCode-Bold', 'Fira Code', monospace;font-weight:700;font-size:20px;fill:#fff;">P</text></g><g transform="matrix(-0.437045,-0.89944,0.89944,-0.437045,-105.413,905.693)"><text x="230.728px" y="485.835px" style="font-family:'FiraCode-Bold', 'Fira Code', monospace;font-weight:700;font-size:20px;fill:#fff;">E</text></g><g transform="matrix(-0.334282,-0.942473,0.942473,-0.334282,-146.868,845.838)"><text x="225.296px" y="474.789px" style="font-family:'FiraCode-Bold', 'Fira Code', monospace;font-weight:700;font-size:20px;fill:#fff;">R</text></g></g><circle cx="249.998" cy="147.623" r="5.078" style="fill:#fff;"/><circle cx="10.788" cy="148.623" r="5.078" style="fill:#fff;"/></svg>